<?xml version="1.0" encoding="utf-8" standalone="no"?>
<!DOCTYPE svg PUBLIC "-//W3C//DTD SVG 1.1//EN" "http://www.w3.org/Graphics/SVG/1.1/DTD/svg11.dtd">
<svg version="1.1" xmlns="http://www.w3.org/2000/svg" xmlns:xlink="http://www.w3.org/1999/xlink" width="208pt" height="134pt" viewBox="0 0 208 134" xml:space="preserve" enable-background="new 0 0 208 134">
<g transform="scale(0.24,0.24)">
<g>
	<rect x="0" y="0" width="868.66376" height="557.9738" fill="#FFFFFF" fill-opacity="1" />
</g>
<g id="Map_Frame">
<g id="Point_Notes">
<clipPath id="cp_2">
<path d="M868.66376 557.9738 L868.66376 0 L0 0 L0 557.9738 Z " />
</clipPath>
<g clip-path="url(#cp_2)">
<g transform="matrix(26.666667 0 0 -26.666667 346.87 175.45464)">
<path d="M0 5 L0.87 4.92 L1.71 4.7 L2.5 4.33 L3.21 3.83 L3.83 3.21 L4.33 2.5 L4.7 1.71 L4.92 0.87 L5 0 L4.92 -0.87 L4.7 -1.71 L4.33 -2.5 L3.83 -3.21 L3.21 -3.83 L2.5 -4.33 L1.71 -4.7 L0.87 -4.92 L0 -5 L-0.87 -4.92 L-1.71 -4.7 L-2.5 -4.33 L-3.21 -3.83 L-3.83 -3.21 L-4.33 -2.5 L-4.7 -1.71 L-4.92 -0.87 L-5 0 L-4.92 0.87 L-4.7 1.71 L-4.33 2.5 L-3.83 3.21 L-3.21 3.83 L-2.5 4.33 L-1.71 4.7 L-0.87 4.92 L0 5 Z "  fill="#FFFFFF" fill-rule="evenodd" stroke="#A7A9AC" fill-opacity="1" stroke-opacity="1"  stroke-width="0.5" stroke-linecap="round" stroke-linejoin="round" stroke-miterlimit="10" />
</g>
</g>
<clipPath id="cp_3">
<path d="M468.29857 296.88321 L468.29857 54.026071 L225.44143 54.026071 L225.44143 296.88321 Z " />
</clipPath>
<g clip-path="url(#cp_3)">
<g transform="matrix(1.4285714 0 0 -1.4285714 225.44143 296.88321)">
<path d="M45 29.8 L42.6 30 L40.3 30.6 L38.1 31.5 L36 32.8 L34.2 34.4 L32.7 36.2 L31.5 38.3 L30.6 40.5 L30.1 42.9 L30 45.3 L30.3 47.7 L30.9 50 L10 50 L10 66.7 L10.2 69 L10.8 71.2 L11.8 73.3 L13.1 75.2 L14.8 76.9 L16.7 78.2 L18.8 79.2 L21 79.8 L23.3 80 L26.2 80 L31.7 102.3 L33.3 105.4 L35.8 107.9 L38.9 109.5 L42.4 110 L64.8 110 L64.8 120 L65.5 123.6 L67.6 126.7 L70.7 128.8 L74.3 129.5 L79.5 129.5 L81.1 129.3 L82.7 128.9 L84.2 128.2 L85.6 127.3 L86.8 126.1 L87.7 124.7 L88.4 123.2 L88.8 121.6 L89 120 L89 110 L99.2 110 L101 109.9 L102.8 109.4 L104.5 108.7 L106.1 107.7 L107.5 106.4 L108.6 105 L121.4 80 L134.7 80 L143.4 79.4 L151.1 75.5 L160 66.7 L160 50 L139.1 50 L139.8 47.5 L140 45 L139.8 42.5 L139.2 40 L138.1 37.7 L136.7 35.5 L135 33.7 L133 32.1 L130.7 31 L128.3 30.2 L125.8 29.8 L125 29.8 L122.6 30 L120.3 30.6 L118.1 31.5 L116 32.8 L114.2 34.4 L112.7 36.2 L111.5 38.3 L110.6 40.5 L110.1 42.9 L110 45.3 L110.3 47.7 L110.9 50 L59.1 50 L59.8 47.5 L60 45 L59.8 42.5 L59.2 40 L58.1 37.7 L56.7 35.5 L55 33.7 L53 32.1 L50.7 31 L48.3 30.2 L45.8 29.8 L45 29.8 Z M90.8 60.5 L91.5 63.4 L86.1 77.5 L98.5 84.4 L98.9 84.7 L99.3 85 L99.6 85.4 L99.8 85.8 L99.9 86.3 L100 86.7 L100 87.2 L99.9 87.7 L99.9 87.7 L98.8 89.3 L96.9 90 L82.8 90 L78 103.9 L77.8 104.4 L77.5 104.8 L77.1 105.2 L76.7 105.5 L76.2 105.8 L75.7 105.9 L75.2 106 L74.6 106 L74.1 105.9 L73.6 105.7 L73.1 105.3 L72.6 104.9 L72.3 104.4 L72 103.9 L68.5 90 L53.2 90 L52.7 89.9 L52.1 89.8 L51.6 89.6 L51.2 89.3 L50.8 88.9 L50.5 88.4 L50.2 88 L50.1 87.4 L50 86.9 L51.6 84.4 L63.3 78.9 L58.9 63.4 L59.1 61.3 L60.6 59.9 L61.1 59.8 L61.6 59.7 L62.2 59.7 L62.7 59.8 L63.2 60 L63.7 60.3 L64.1 60.6 L75 70.7 L86.3 60.5 L86.8 60.2 L87.4 59.9 L87.9 59.8 L88.5 59.7 L89.2 59.8 L89.7 59.9 L90.3 60.2 L90.8 60.5 Z M118.2 143 L104.2 129 L97.2 136.1 L111.1 150 L118.2 143 Z M52.8 136.1 L45.8 129.1 L31.9 143 L38.9 150.1 L52.8 136.1 Z M80 140 L70 140 L70 160 L80 160 L80 140 Z "  stroke="none" fill="#E60000" fill-rule="evenodd" fill-opacity="1"/>
</g>
</g>
</g>
<!-- Begin_Label-->
<clipPath id="cp_4">
<path d="M868.66376 557.9738 L868.66376 0 L0 0 L0 557.9738 Z " />
</clipPath>
<g clip-path="url(#cp_4)">
<g id="EmbdFile__1" transform="matrix(1 0 0 1 0 0)">
<g>
<g transform="scale(1,1)">
</g>
</g>
</g>
</g>
<!-- End_Label-->
</g>
</g>
</svg>
