<?xml version="1.0" encoding="utf-8" standalone="no"?>
<!DOCTYPE svg PUBLIC "-//W3C//DTD SVG 1.1//EN" "http://www.w3.org/Graphics/SVG/1.1/DTD/svg11.dtd">
<svg version="1.1" xmlns="http://www.w3.org/2000/svg" xmlns:xlink="http://www.w3.org/1999/xlink" width="64pt" height="64pt" viewBox="51.2488 10.1091 64 64" xml:space="preserve" enable-background="new 51.2488 10.1091 64 64">
<g transform="scale(0.24,0.24)">
<g id="Map_Frame">
<g id="Point_Notes">
<clipPath id="cp_2">
<path d="M868.66376 557.9738 L868.66376 0 L0 0 L0 557.9738 Z " />
</clipPath>
<g clip-path="url(#cp_2)">
<g transform="matrix(26.666667 0 0 -26.666667 346.87 175.45464)">
<path d="M0 5 L0.87 4.92 L1.71 4.7 L2.5 4.33 L3.21 3.83 L3.83 3.21 L4.33 2.5 L4.7 1.71 L4.92 0.87 L5 0 L4.92 -0.87 L4.7 -1.71 L4.33 -2.5 L3.83 -3.21 L3.21 -3.83 L2.5 -4.33 L1.71 -4.7 L0.87 -4.92 L0 -5 L-0.87 -4.92 L-1.71 -4.7 L-2.5 -4.33 L-3.21 -3.83 L-3.83 -3.21 L-4.33 -2.5 L-4.7 -1.71 L-4.92 -0.87 L-5 0 L-4.92 0.87 L-4.7 1.71 L-4.33 2.5 L-3.83 3.21 L-3.21 3.83 L-2.5 4.33 L-1.71 4.7 L-0.87 4.92 L0 5 Z "  fill="none" fill-rule="evenodd" stroke="#A7A9AC" fill-opacity="1" stroke-opacity="1"  stroke-width="0.5" stroke-linecap="round" stroke-linejoin="round" stroke-miterlimit="10" />
</g>
</g>
<clipPath id="cp_3">
<path d="M468.29857 296.88321 L468.29857 54.026071 L225.44143 54.026071 L225.44143 296.88321 Z " />
</clipPath>
<g clip-path="url(#cp_3)">
<g transform="matrix(14.285714 0 0 -14.285714 225.44143 296.88321)">
<path d="M4.65 10.32 L4.97 10.35 L5.28 10.44 L5.57 10.6 L5.82 10.8 L6.02 11.05 L6.17 11.33 L6.27 11.64 L6.3 11.96 L6.27 12.28 L6.17 12.59 L6.02 12.88 L5.82 13.13 L5.57 13.33 L5.28 13.48 L4.97 13.58 L4.65 13.61 L4.33 13.58 L4.02 13.48 L3.73 13.33 L3.48 13.13 L3.28 12.88 L3.13 12.59 L3.03 12.28 L3 11.96 L3.03 11.64 L3.13 11.33 L3.28 11.05 L3.48 10.8 L3.73 10.6 L4.02 10.44 L4.33 10.35 L4.65 10.32 Z "  stroke="none" fill="#00A9E6" fill-rule="evenodd" fill-opacity="1"/>
</g>
</g>
<g clip-path="url(#cp_3)">
<g transform="matrix(14.285714 0 0 -14.285714 225.44143 296.88321)">
<path d="M8.54 8.18 L8.82 8.2 L9.09 8.26 L9.36 8.37 L9.6 8.52 L9.81 8.7 L9.99 8.91 L10.14 9.15 L10.25 9.42 L10.31 9.69 L10.33 9.97 L10.3 10.28 L10.22 10.58 L10.08 10.86 L9.91 11.12 L9.69 11.34 L9.43 11.51 L9.15 11.65 L8.85 11.73 L8.54 11.76 L8.26 11.74 L7.99 11.68 L7.72 11.57 L7.48 11.42 L7.27 11.24 L7.09 11.03 L6.94 10.79 L6.83 10.52 L6.77 10.25 L6.75 9.97 L6.77 9.69 L6.83 9.42 L6.94 9.15 L7.09 8.91 L7.27 8.7 L7.48 8.52 L7.72 8.37 L7.99 8.26 L8.26 8.2 L8.54 8.18 Z "  stroke="none" fill="#00A9E6" fill-rule="evenodd" fill-opacity="1"/>
</g>
</g>
<g clip-path="url(#cp_3)">
<g transform="matrix(14.285714 0 0 -14.285714 225.44143 296.88321)">
<path d="M11.98 3 L11.87 3.76 L11.65 4.48 L11.31 5.14 L10.88 5.71 L10.37 6.18 L9.8 6.53 L9.19 6.74 L8.55 6.81 L7.91 6.74 L7.29 6.53 L6.72 6.18 L6.21 5.71 L5.78 5.13 L5.45 4.48 L5.23 3.76 L5.12 3 L11.98 3 Z "  stroke="none" fill="#00A9E6" fill-rule="evenodd" fill-opacity="1"/>
</g>
</g>
<g clip-path="url(#cp_3)">
<g transform="matrix(14.285714 0 0 -14.285714 225.44143 296.88321)">
<path d="M12.35 10.32 L12.67 10.35 L12.98 10.44 L13.27 10.6 L13.52 10.8 L13.72 11.05 L13.87 11.33 L13.97 11.64 L14 11.96 L13.97 12.28 L13.87 12.59 L13.72 12.88 L13.52 13.13 L13.27 13.33 L12.98 13.48 L12.67 13.58 L12.35 13.61 L12.03 13.58 L11.72 13.48 L11.43 13.33 L11.18 13.13 L10.98 12.88 L10.83 12.59 L10.73 12.28 L10.7 11.96 L10.73 11.64 L10.83 11.33 L10.98 11.05 L11.18 10.8 L11.43 10.6 L11.72 10.44 L12.03 10.35 L12.35 10.32 Z "  stroke="none" fill="#00A9E6" fill-rule="evenodd" fill-opacity="1"/>
</g>
</g>
<g clip-path="url(#cp_3)">
<g transform="matrix(14.285714 0 0 -14.285714 225.44143 296.88321)">
<path d="M5.19 6 L5.21 6.02 L5.57 6.45 L6.21 7.02 L6.96 7.46 L6.5 7.93 L6.17 8.51 L6.14 8.55 L5.83 8.76 L5.48 8.92 L5.12 9.02 L4.74 9.05 L3.8 8.79 L2.99 8.23 L2.41 7.45 L2.11 6.52 L2.08 6 L5.19 6 Z M14.92 6 L14.88 6.55 L14.75 7.09 L14.51 7.59 L14.19 8.05 L13.79 8.43 L13.32 8.73 L12.8 8.94 L12.26 9.05 L11.92 9.02 L11.58 8.94 L11.26 8.8 L10.97 8.62 L10.66 8.2 L10.66 8.2 L10.05 7.47 L11.07 6.86 L11.9 6 L14.92 6 Z "  stroke="none" fill="#00A9E6" fill-rule="evenodd" fill-opacity="1"/>
</g>
</g>
</g>
<!-- Begin_Label-->
<clipPath id="cp_4">
<path d="M868.66376 557.9738 L868.66376 0 L0 0 L0 557.9738 Z " />
</clipPath>
<g clip-path="url(#cp_4)">
<g id="EmbdFile__1" transform="matrix(1 0 0 1 0 0)">
<g>
<g transform="scale(1,1)">
</g>
</g>
</g>
</g>
<!-- End_Label-->
</g>
</g>
</svg>
