<?xml version="1.0" encoding="utf-8" standalone="no"?>
<!DOCTYPE svg PUBLIC "-//W3C//DTD SVG 1.1//EN" "http://www.w3.org/Graphics/SVG/1.1/DTD/svg11.dtd">
<svg version="1.1"
     xmlns="http://www.w3.org/2000/svg"
     xmlns:xlink="http://www.w3.org/1999/xlink"
     width="64pt"
     height="64pt"
     viewBox="51.2488 10.1091 64 64"
     xml:space="preserve">

  <g transform="scale(0.24,0.24)">
    <g id="Map_Frame">
      <g id="Point_Notes">

        <!-- Gray circle outline -->
        <clipPath id="cp_2">
          <path d="M868.66376 557.9738 L868.66376 0 L0 0 L0 557.9738 Z"/>
        </clipPath>

        <g clip-path="url(#cp_2)">
          <g transform="matrix(26.666667 0 0 -26.666667 346.87 175.45464)">
            <path d="M0 5 L0.87 4.92 L1.71 4.7 L2.5 4.33 L3.21 3.83 L3.83 3.21 L4.33 2.5
                     L4.7 1.71 L4.92 0.87 L5 0 L4.92 -0.87 L4.7 -1.71 L4.33 -2.5 L3.83 -3.21
                     L3.21 -3.83 L2.5 -4.33 L1.71 -4.7 L0.87 -4.92 L0 -5 L-0.87 -4.92
                     L-1.71 -4.7 L-2.5 -4.33 L-3.21 -3.83 L-3.83 -3.21 L-4.33 -2.5
                     L-4.7 -1.71 L-4.92 -0.87 L-5 0 L-4.92 0.87 L-4.7 1.71 L-4.33 2.5
                     L-3.83 3.21 L-3.21 3.83 L-2.5 4.33 L-1.71 4.7 L-0.87 4.92 L0 5 Z"
                  fill="none"
                  stroke="#A7A9AC"
                  stroke-width="0.5"
                  stroke-linecap="round"
                  stroke-linejoin="round"
                  stroke-miterlimit="10"/>
          </g>
        </g>

        <!-- Main symbol -->
        <g clip-path="url(#cp_2)">
          <g transform="matrix(14.285714 0 0 -14.285714 225.44143 296.88321)">
            <path d="M14 12.99 L14 9.86 L13.94 8.3 L13.73 7.04 L13.36 5.92 L12.8 4.94
                     L12.04 4.05 L11.07 3.26 L9.89 2.58 L8.5 2 L7.11 2.58 L5.93 3.26
                     L4.96 4.05 L4.2 4.94 L3.64 5.92 L3.27 7.04 L3.06 8.3 L3 9.86
                     L3 12.99 L4.58 13.1 L6.06 13.49 L7.42 14.15 L8.5 15
                     L9.58 14.15 L10.94 13.49 L12.42 13.1 L14 12.99 Z
                     M9.17 13 L9.25 12.59 L9.2 12.1 L9.01 11.57 L8.7 11.02 L8.13 10.39
                     L6.62 9.23 L6.11 8.61 L5.85 7.96 L5.8 7.19 L6.14 6.32 L6.76 5.62
                     L7.6 5.16 L8.55 5 L9.07 5.05 L9.57 5.19 L10.04 5.41 L10.46 5.72
                     L10.81 6.09 L11.08 6.52 L11.26 6.98 L11.34 7.46 L11.2 9.13
                     L11.35 9.68 L11.78 10.17 L11.21 9.96 L10.73 9.65 L10.41 9.3
                     L10.24 8.89 L10.07 8.19 L9.89 7.86 L9.57 7.66 L9.01 7.53
                     L8.42 7.59 L8.22 7.73 L8.11 7.93 L8.09 8.19 L8.16 8.47
                     L8.56 9.07 L9.64 10.28 L9.89 10.77 L10.05 11.32 L10.05 11.77
                     L9.9 12.21 L9.6 12.64 L9.17 13 Z"
                  fill="#C93100"
                  fill-rule="evenodd"/>
          </g>
        </g>

      </g>
    </g>
  </g>
</svg>