<?xml version="1.0" encoding="utf-8" standalone="no"?>
<!DOCTYPE svg PUBLIC "-//W3C//DTD SVG 1.1//EN" "http://www.w3.org/Graphics/SVG/1.1/DTD/svg11.dtd">
<svg version="1.1" xmlns="http://www.w3.org/2000/svg" xmlns:xlink="http://www.w3.org/1999/xlink" width="64pt" height="64pt" viewBox="51.2488 10.1091 64 64" xml:space="preserve" enable-background="new 51.2488 10.1091 64 64">
<g transform="scale(0.24,0.24)">
<g id="Map_Frame">
<g id="Point_Notes">
<clipPath id="cp_2">
<path d="M868.66376 557.9738 L868.66376 0 L0 0 L0 557.9738 Z " />
</clipPath>
<g clip-path="url(#cp_2)">
<g transform="matrix(26.666667 0 0 -26.666667 346.87 175.45464)">
<path d="M0 5 L0.87 4.92 L1.71 4.7 L2.5 4.33 L3.21 3.83 L3.83 3.21 L4.33 2.5 L4.7 1.71 L4.92 0.87 L5 0 L4.92 -0.87 L4.7 -1.71 L4.33 -2.5 L3.83 -3.21 L3.21 -3.83 L2.5 -4.33 L1.71 -4.7 L0.87 -4.92 L0 -5 L-0.87 -4.92 L-1.71 -4.7 L-2.5 -4.33 L-3.21 -3.83 L-3.83 -3.21 L-4.33 -2.5 L-4.7 -1.71 L-4.92 -0.87 L-5 0 L-4.92 0.87 L-4.7 1.71 L-4.33 2.5 L-3.83 3.21 L-3.21 3.83 L-2.5 4.33 L-1.71 4.7 L-0.87 4.92 L0 5 Z "  fill="none" fill-rule="evenodd" stroke="#A7A9AC" fill-opacity="1" stroke-opacity="1"  stroke-width="0.5" stroke-linecap="round" stroke-linejoin="round" stroke-miterlimit="10" />
</g>
</g>
<g clip-path="url(#cp_2)">
<g transform="matrix(14.285714 0 0 -14.285714 225.44143 296.88321)">
<path d="M9.59 9.18 L11.46 6.17 L12.63 8.57 L13.02 8 L13.57 8 L13.24 7.34 L12.81 6.69 L11.69 5.38 L10.19 4.11 L8.5 3 L6.81 4.11 L5.31 5.38 L4.19 6.69 L3.76 7.34 L3.43 8 L5.69 8 L7.55 4.96 L9.59 9.18 Z M14 9.93 L13.89 9 L13.55 9 L12.49 10.56 L11.35 8.23 L9.48 11.25 L7.45 7.04 L6.25 9 L3.11 9 L3 9.93 L3.04 10.57 L3.18 11.13 L3.4 11.64 L3.71 12.07 L4.12 12.43 L4.6 12.71 L5.17 12.91 L5.75 13 L6.57 12.91 L7.34 12.6 L7.99 12.12 L8.5 11.46 L9.01 12.12 L9.66 12.6 L10.43 12.91 L11.25 13 L11.83 12.91 L12.4 12.71 L12.88 12.43 L13.29 12.07 L13.6 11.64 L13.82 11.13 L13.96 10.57 L14 9.93 Z "  stroke="none" fill="#C93100" fill-rule="evenodd" fill-opacity="1"/>
</g>
</g>
</g>
<!-- Begin_Label-->
<clipPath id="cp_3">
<path d="M868.66376 557.9738 L868.66376 0 L0 0 L0 557.9738 Z " />
</clipPath>
<g clip-path="url(#cp_3)">
<g id="EmbdFile__1" transform="matrix(1 0 0 1 0 0)">
<g>
<g transform="scale(1,1)">
</g>
</g>
</g>
</g>
<!-- End_Label-->
</g>
</g>
</svg>
