<?xml version="1.0" encoding="utf-8" standalone="no"?>
<!DOCTYPE svg PUBLIC "-//W3C//DTD SVG 1.1//EN" "http://www.w3.org/Graphics/SVG/1.1/DTD/svg11.dtd">
<svg version="1.1" xmlns="http://www.w3.org/2000/svg" xmlns:xlink="http://www.w3.org/1999/xlink" width="208pt" height="134pt" viewBox="0 0 208 134" xml:space="preserve" enable-background="new 0 0 208 134">
<g transform="scale(0.24,0.24)">
<g>
	<rect x="0" y="0" width="868.66376" height="557.9738" fill="#FFFFFF" fill-opacity="1" />
</g>
<g id="Map_Frame">
<g id="Point_Notes">
<clipPath id="cp_2">
<path d="M868.66376 557.9738 L868.66376 0 L0 0 L0 557.9738 Z " />
</clipPath>
<g clip-path="url(#cp_2)">
<g transform="matrix(26.666667 0 0 -26.666667 346.87 175.45464)">
<path d="M0 5 L0.87 4.92 L1.71 4.7 L2.5 4.33 L3.21 3.83 L3.83 3.21 L4.33 2.5 L4.7 1.71 L4.92 0.87 L5 0 L4.92 -0.87 L4.7 -1.71 L4.33 -2.5 L3.83 -3.21 L3.21 -3.83 L2.5 -4.33 L1.71 -4.7 L0.87 -4.92 L0 -5 L-0.87 -4.92 L-1.71 -4.7 L-2.5 -4.33 L-3.21 -3.83 L-3.83 -3.21 L-4.33 -2.5 L-4.7 -1.71 L-4.92 -0.87 L-5 0 L-4.92 0.87 L-4.7 1.71 L-4.33 2.5 L-3.83 3.21 L-3.21 3.83 L-2.5 4.33 L-1.71 4.7 L-0.87 4.92 L0 5 Z "  fill="#FFFFFF" fill-rule="evenodd" stroke="#A7A9AC" fill-opacity="1" stroke-opacity="1"  stroke-width="0.5" stroke-linecap="round" stroke-linejoin="round" stroke-miterlimit="10" />
</g>
</g>
<g clip-path="url(#cp_2)">
<g transform="matrix(14.285714 0 0 -14.285714 225.44143 296.88321)">
<path d="M14 12.99 L14 9.86 L13.94 8.3 L13.73 7.04 L13.36 5.92 L12.8 4.94 L12.04 4.05 L11.07 3.26 L9.89 2.58 L8.5 2 L7.11 2.58 L5.93 3.26 L4.96 4.05 L4.2 4.94 L3.64 5.92 L3.27 7.04 L3.06 8.3 L3 9.86 L3 12.99 L4.58 13.1 L6.06 13.49 L7.42 14.15 L8.5 15 L9.58 14.15 L10.94 13.49 L12.42 13.1 L14 12.99 Z M6.37 5.15 L6.65 5.26 L8.5 7.05 L10.35 5.26 L10.63 5.15 L10.84 5.21 L11.01 5.41 L11.01 5.67 L10.29 7.9 L12.18 9.28 L12.33 9.48 L12.33 9.73 L12.18 9.93 L11.95 10 L9.61 10 L8.88 12.23 L8.74 12.43 L8.5 12.51 L8.26 12.43 L8.12 12.23 L7.39 10 L5.05 10 L4.82 9.92 L4.67 9.72 L4.67 9.48 L4.82 9.28 L6.71 7.9 L5.99 5.67 L5.99 5.41 L6.16 5.21 L6.37 5.15 Z "  stroke="none" fill="#007AC2" fill-rule="evenodd" fill-opacity="1"/>
</g>
</g>
</g>
<!-- Begin_Label-->
<clipPath id="cp_3">
<path d="M868.66376 557.9738 L868.66376 0 L0 0 L0 557.9738 Z " />
</clipPath>
<g clip-path="url(#cp_3)">
<g id="EmbdFile__1" transform="matrix(1 0 0 1 0 0)">
<g>
<g transform="scale(1,1)">
</g>
</g>
</g>
</g>
<!-- End_Label-->
</g>
</g>
</svg>
