<?xml version="1.0" encoding="utf-8" standalone="no"?>
<!DOCTYPE svg PUBLIC "-//W3C//DTD SVG 1.1//EN" "http://www.w3.org/Graphics/SVG/1.1/DTD/svg11.dtd">
<svg version="1.1" xmlns="http://www.w3.org/2000/svg" xmlns:xlink="http://www.w3.org/1999/xlink" width="64pt" height="64pt" viewBox="51.2488 10.1091 64 64" xml:space="preserve" enable-background="new 51.2488 10.1091 64 64">
<g transform="scale(0.24,0.24)">
<g id="Map_Frame">
<g id="Point_Notes">
<clipPath id="cp_2">
<path d="M868.66376 557.9738 L868.66376 0 L0 0 L0 557.9738 Z " />
</clipPath>
<g clip-path="url(#cp_2)">
<g transform="matrix(26.666667 0 0 -26.666667 346.87 175.45464)">
<path d="M0 5 L0.87 4.92 L1.71 4.7 L2.5 4.33 L3.21 3.83 L3.83 3.21 L4.33 2.5 L4.7 1.71 L4.92 0.87 L5 0 L4.92 -0.87 L4.7 -1.71 L4.33 -2.5 L3.83 -3.21 L3.21 -3.83 L2.5 -4.33 L1.71 -4.7 L0.87 -4.92 L0 -5 L-0.87 -4.92 L-1.71 -4.7 L-2.5 -4.33 L-3.21 -3.83 L-3.83 -3.21 L-4.33 -2.5 L-4.7 -1.71 L-4.92 -0.87 L-5 0 L-4.92 0.87 L-4.7 1.71 L-4.33 2.5 L-3.83 3.21 L-3.21 3.83 L-2.5 4.33 L-1.71 4.7 L-0.87 4.92 L0 5 Z "  fill="none" fill-rule="evenodd" stroke="#A7A9AC" fill-opacity="1" stroke-opacity="1"  stroke-width="0.5" stroke-linecap="round" stroke-linejoin="round" stroke-miterlimit="10" />
</g>
</g>
<clipPath id="cp_3">
<path d="M468.29857 296.88321 L468.29857 54.026071 L225.44143 54.026071 L225.44143 296.88321 Z " />
</clipPath>
<g clip-path="url(#cp_3)">
<g transform="matrix(14.285714 0 0 -14.285714 225.44143 296.88321)">
<path d="M13 12 L13 13 L11.16 13 L11.2 12.62 L11.2 12.39 L11.17 12 L13 12 Z M5.83 12 L5.8 12.39 L5.8 12.39 L5.8 12.62 L5.84 13 L4 13 L4 12 L5.83 12 Z M8.62 11 L8.84 11.02 L9.05 11.06 L9.25 11.15 L9.43 11.26 L9.6 11.4 L9.74 11.57 L9.85 11.75 L9.94 11.95 L9.98 12.16 L10 12.38 L10 12.62 L9.98 12.84 L9.94 13.05 L9.85 13.25 L9.74 13.43 L9.6 13.6 L9.43 13.74 L9.25 13.85 L9.05 13.94 L8.84 13.98 L8.62 14 L8.38 14 L8.16 13.98 L7.95 13.94 L7.75 13.85 L7.57 13.74 L7.4 13.6 L7.26 13.43 L7.15 13.25 L7.06 13.05 L7.02 12.84 L7 12.62 L7 12.38 L7.02 12.16 L7.06 11.95 L7.15 11.75 L7.26 11.57 L7.4 11.4 L7.57 11.26 L7.75 11.15 L7.95 11.06 L8.16 11.02 L8.38 11 L8.62 11 Z M15 9 L15 10 L11.71 10 L12.14 9 L15 9 Z M4.86 9 L5.29 10 L5.29 10 L2 10 L2 9 L4.86 9 Z M15 6 L15 7 L12.2 7 L12.2 6 L15 6 Z M4.8 6 L4.8 7 L2 7 L2 6 L4.8 6 Z M10 3 L10 4 L11 4 L11 8.46 L10.88 9.05 L10.55 9.55 L10.05 9.88 L9.46 10 L7.54 10 L6.95 9.88 L6.45 9.55 L6.12 9.05 L6 8.46 L6 4 L7 4 L7 3 L10 3 Z "  stroke="none" fill="#000000" fill-rule="evenodd" fill-opacity="1"/>
</g>
</g>
</g>
<!-- Begin_Label-->
<clipPath id="cp_4">
<path d="M868.66376 557.9738 L868.66376 0 L0 0 L0 557.9738 Z " />
</clipPath>
<g clip-path="url(#cp_4)">
<g id="EmbdFile__1" transform="matrix(1 0 0 1 0 0)">
<g>
<g transform="scale(1,1)">
</g>
</g>
</g>
</g>
<!-- End_Label-->
</g>
</g>
</svg>
