<?xml version="1.0" encoding="utf-8" standalone="no"?>
<!DOCTYPE svg PUBLIC "-//W3C//DTD SVG 1.1//EN" "http://www.w3.org/Graphics/SVG/1.1/DTD/svg11.dtd">
<svg version="1.1" xmlns="http://www.w3.org/2000/svg" xmlns:xlink="http://www.w3.org/1999/xlink" width="64pt" height="64pt" viewBox="51.2488 10.1091 64 64" xml:space="preserve" enable-background="new 51.2488 10.1091 64 64">
<g transform="scale(0.24,0.24)">
<g id="Map_Frame">
<g id="Point_Notes">
<clipPath id="cp_2">
<path d="M868.66376 557.9738 L868.66376 0 L0 0 L0 557.9738 Z " />
</clipPath>
<g clip-path="url(#cp_2)">
<g transform="matrix(26.666667 0 0 -26.666667 346.87 175.45464)">
<path d="M0 5 L0.87 4.92 L1.71 4.7 L2.5 4.33 L3.21 3.83 L3.83 3.21 L4.33 2.5 L4.7 1.71 L4.92 0.87 L5 0 L4.92 -0.87 L4.7 -1.71 L4.33 -2.5 L3.83 -3.21 L3.21 -3.83 L2.5 -4.33 L1.71 -4.7 L0.87 -4.92 L0 -5 L-0.87 -4.92 L-1.71 -4.7 L-2.5 -4.33 L-3.21 -3.83 L-3.83 -3.21 L-4.33 -2.5 L-4.7 -1.71 L-4.92 -0.87 L-5 0 L-4.92 0.87 L-4.7 1.71 L-4.33 2.5 L-3.83 3.21 L-3.21 3.83 L-2.5 4.33 L-1.71 4.7 L-0.87 4.92 L0 5 Z "  fill="none" fill-rule="evenodd" stroke="#A7A9AC" fill-opacity="1" stroke-opacity="1"  stroke-width="0.5" stroke-linecap="round" stroke-linejoin="round" stroke-miterlimit="10" />
</g>
</g>
<g clip-path="url(#cp_2)">
<g transform="matrix(10.810811 0 0 -10.810811 233.35649 288.96816)">
<path d="M11 2 L10 2 L10 7 L11 7 L11 2 Z M15 15 L19 10.5 L15 6 L15 9 L6 9 L6 6 L2 10.5 L6 15 L6 12 L15 12 L15 15 Z M11 14 L10 14 L10 19 L11 19 L11 14 Z "  stroke="none" fill="#007AC2" fill-rule="evenodd" fill-opacity="1"/>
</g>
</g>
</g>
<!-- Begin_Label-->
<clipPath id="cp_3">
<path d="M868.66376 557.9738 L868.66376 0 L0 0 L0 557.9738 Z " />
</clipPath>
<g clip-path="url(#cp_3)">
<g id="EmbdFile__1" transform="matrix(1 0 0 1 0 0)">
<g>
<g transform="scale(1,1)">
</g>
</g>
</g>
</g>
<!-- End_Label-->
</g>
</g>
</svg>
